# xmcd
#
# Track frame offsets:
#	150
#	15265
#	22180
#	31710
#	39740
#	49667
#	61805
#	70290
#	84285
#	102487
#	112935
#	124397
#	131015
#	141455
#	156410
#	167160
#	181022
#	198185
#	206815
#	221807
#
# Disc length: 3034 seconds
#
# Revision: 0
# Processed by: cddbd v1.4PL0 Copyright (c) Steve Scherf et al.
# Submitted via: dBpowerAMP V4.0
#
DISCID=1f0bd814
DTITLE=Diverse - Stille Nacht, heilige Nacht
DYEAR=1987
DGENRE=Folklore
TTITLE0=Stille Nacht, heilige Nacht - Kinderchor Kellberg-Thyrnau
TTITLE1=Morgen kommt der Weihnachtsmann - Kinderchor Münchweiler
TTITLE2=Vom Himmel hoch, o Englein kommt - Hermann Prey and Fritz Wunderlich
TTITLE3=Kommet Ihr Hirten - Peter Schreier
TTITLE4=In dulci jubilo - Berliner Kammerchor
TTITLE5=Süßer die Glocken nie klingen - Cäcilia Chor Weisskirch
TTITLE6=O Tannenbaum - Kinderchor
TTITLE7=Die Weihnachtsgeschichte - Will Quadflieg
TTITLE8=Ich steh an deiner Krippen hier - Kinderchor Bad Tölz
TTITLE9=Laßt uns froh und munter sein - Die Froschkönige
TTITLE10=Kling Glöckchen klingelingeling - Klosterspatzen Hördt
TTITLE11=Leise rieselt der Schnee - Die Froschkönige
TTITLE12=Engel auf den Feldern singen - Rheydter Kinderchor
TTITLE13=Es ist ein Ros' entsprungen - Fritz Wunderlich
TTITLE14=O du fröhliche - Kinderchor Münchweiler
TTITLE15=Maria durch ein Dornwald ging - Kinderchor Bad Tölz
TTITLE16=Was soll das bedeuten - Kinderchor Bad Tölz
TTITLE17=Alle Jahre wieder - Kinderchor Münchweiler
TTITLE18=Macht hoch die Tür - Kinder-&Jugendorchester St.Stephan
TTITLE19=Morgen, Kinder, wird's was geben - Kinderchor Münchweiler
EXTD=
EXTT0=
EXTT1=
EXTT2=
EXTT3=
EXTT4=
EXTT5=
EXTT6=
EXTT7=
EXTT8=
EXTT9=
EXTT10=
EXTT11=
EXTT12=
EXTT13=
EXTT14=
EXTT15=
EXTT16=
EXTT17=
EXTT18=
EXTT19=
PLAYORDER=
